Involve-Oblique.ufo
<glyph name="ampersand" format="2">
	<unicode hex="0026"/>
	<advance width="757"/>
	<outline>
		<contour>
			<point x="92" y="169" type="curve" smooth="yes"/>
			<point x="92" y="62"/>
			<point x="170" y="-13"/>
			<point x="288" y="-13" type="curve" smooth="yes"/>
			<point x="386" y="-13"/>
			<point x="461" y="36"/>
			<point x="541" y="153" type="curve"/>
			<point x="682" y="-13" type="line"/>
			<point x="742" y="38" type="line"/>
			<point x="589" y="220" type="line"/>
			<point x="773" y="481" type="line"/>
			<point x="691" y="481" type="line"/>
			<point x="545" y="273" type="line"/>
			<point x="430" y="411" type="line"/>
			<point x="567" y="471"/>
			<point x="609" y="519"/>
			<point x="609" y="615" type="curve" smooth="yes"/>
			<point x="609" y="695"/>
			<point x="549" y="752"/>
			<point x="459" y="752" type="curve" smooth="yes"/>
			<point x="354" y="752"/>
			<point x="251" y="666"/>
			<point x="251" y="558" type="curve" smooth="yes"/>
			<point x="251" y="520"/>
			<point x="267" y="485"/>
			<point x="307" y="433" type="curve"/>
			<point x="195" y="381"/>
			<point x="92" y="309"/>
		</contour>
		<contour>
			<point x="165" y="177" type="curve" smooth="yes"/>
			<point x="165" y="286"/>
			<point x="262" y="341"/>
			<point x="350" y="380" type="curve"/>
			<point x="496" y="206" type="line"/>
			<point x="422" y="96"/>
			<point x="366" y="54"/>
			<point x="295" y="54" type="curve" smooth="yes"/>
			<point x="218" y="54"/>
			<point x="165" y="106"/>
		</contour>
		<contour>
			<point x="386" y="464" type="curve"/>
			<point x="345" y="509"/>
			<point x="327" y="542"/>
			<point x="327" y="574" type="curve" smooth="yes"/>
			<point x="327" y="637"/>
			<point x="389" y="685"/>
			<point x="449" y="685" type="curve" smooth="yes"/>
			<point x="503" y="685"/>
			<point x="539" y="653"/>
			<point x="539" y="607" type="curve" smooth="yes"/>
			<point x="539" y="528"/>
			<point x="449" y="487"/>
		</contour>
	</outline>
</glyph>
<glyph name="parenleft" format="2">
	<unicode hex="0028"/>
	<advance width="369"/>
	<outline>
		<contour>
			<point x="324" y="-60" type="line"/>
			<point x="225" y="9"/>
			<point x="181" y="114"/>
			<point x="181" y="234" type="curve" smooth="yes"/>
			<point x="181" y="414"/>
			<point x="304" y="592"/>
			<point x="460" y="676" type="curve"/>
			<point x="472" y="739" type="line"/>
			<point x="265" y="673"/>
			<point x="106" y="436"/>
			<point x="106" y="220" type="curve" smooth="yes"/>
			<point x="106" y="81"/>
			<point x="176" y="-73"/>
			<point x="312" y="-125" type="curve"/>
		</contour>
	</outline>
</glyph>
<glyph name="comma" format="2">
	<unicode hex="002C"/>
	<advance width="267"/>
	<outline>
		<contour>
			<point x="90" y="0" type="line"/>
			<point x="128" y="0" type="line"/>
			<point x="121" y="-52"/>
			<point x="94" y="-79"/>
			<point x="58" y="-83" type="curve"/>
			<point x="50" y="-127" type="line"/>
			<point x="127" y="-127"/>
			<point x="166" y="-81"/>
			<point x="184" y="11" type="curve" smooth="yes"/>
			<point x="206" y="126" type="line"/>
			<point x="114" y="126" type="line"/>
		</contour>
	</outline>
</glyph>
<glyph name="two" format="2">
	<unicode hex="0032"/>
	<advance width="554"/>
	<outline>
		<contour>
			<point x="33" y="0" type="line"/>
			<point x="502" y="0" type="line"/>
			<point x="514" y="67" type="line"/>
			<point x="145" y="67" type="line"/>
			<point x="424" y="294" type="line" smooth="yes"/>
			<point x="516" y="368"/>
			<point x="608" y="445"/>
			<point x="608" y="572" type="curve" smooth="yes"/>
			<point x="608" y="679"/>
			<point x="531" y="752"/>
			<point x="412" y="752" type="curve" smooth="yes"/>
			<point x="256" y="752"/>
			<point x="159" y="642"/>
			<point x="132" y="500" type="curve"/>
			<point x="205" y="500" type="line"/>
			<point x="223" y="601"/>
			<point x="285" y="685"/>
			<point x="399" y="685" type="curve" smooth="yes"/>
			<point x="481" y="685"/>
			<point x="533" y="635"/>
			<point x="533" y="562" type="curve" smooth="yes"/>
			<point x="533" y="499"/>
			<point x="489" y="430"/>
			<point x="441" y="391" type="curve" smooth="yes"/>
			<point x="45" y="67" type="line"/>
		</contour>
	</outline>
</glyph>
<glyph name="eight" format="2">
	<unicode hex="0038"/>
	<advance width="554"/>
	<outline>
		<contour>
			<point x="78" y="172" type="curve" smooth="yes"/>
			<point x="78" y="64"/>
			<point x="158" y="-13"/>
			<point x="278" y="-13" type="curve" smooth="yes"/>
			<point x="428" y="-13"/>
			<point x="557" y="113"/>
			<point x="557" y="263" type="curve" smooth="yes"/>
			<point x="557" y="331"/>
			<point x="524" y="383"/>
			<point x="462" y="413" type="curve"/>
			<point x="540" y="447"/>
			<point x="581" y="518"/>
			<point x="581" y="601" type="curve" smooth="yes"/>
			<point x="581" y="692"/>
			<point x="517" y="752"/>
			<point x="417" y="752" type="curve" smooth="yes"/>
			<point x="294" y="752"/>
			<point x="182" y="651"/>
			<point x="182" y="526" type="curve" smooth="yes"/>
			<point x="182" y="472"/>
			<point x="200" y="442"/>
			<point x="244" y="413" type="curve"/>
			<point x="146" y="370"/>
			<point x="78" y="281"/>
		</contour>
		<contour>
			<point x="152" y="181" type="curve" smooth="yes"/>
			<point x="152" y="286"/>
			<point x="239" y="375"/>
			<point x="345" y="375" type="curve" smooth="yes"/>
			<point x="430" y="375"/>
			<point x="481" y="325"/>
			<point x="481" y="250" type="curve" smooth="yes"/>
			<point x="481" y="145"/>
			<point x="397" y="54"/>
			<point x="289" y="54" type="curve" smooth="yes"/>
			<point x="205" y="54"/>
			<point x="152" y="106"/>
		</contour>
		<contour>
			<point x="362" y="444" type="curve" smooth="yes"/>
			<point x="299" y="444"/>
			<point x="258" y="484"/>
			<point x="258" y="542" type="curve" smooth="yes"/>
			<point x="258" y="620"/>
			<point x="323" y="685"/>
			<point x="402" y="685" type="curve" smooth="yes"/>
			<point x="467" y="685"/>
			<point x="506" y="648"/>
			<point x="506" y="591" type="curve" smooth="yes"/>
			<point x="506" y="513"/>
			<point x="442" y="444"/>
		</contour>
	</outline>
</glyph>
<glyph name="nine" format="2">
	<unicode hex="0039"/>
	<advance width="554"/>
	<outline>
		<contour>
			<point x="173" y="0" type="line"/>
			<point x="258" y="0" type="line"/>
			<point x="491" y="272" type="line" smooth="yes"/>
			<point x="563" y="356"/>
			<point x="626" y="431"/>
			<point x="626" y="547" type="curve" smooth="yes"/>
			<point x="626" y="667"/>
			<point x="541" y="752"/>
			<point x="413" y="752" type="curve" smooth="yes"/>
			<point x="246" y="752"/>
			<point x="111" y="602"/>
			<point x="111" y="439" type="curve" smooth="yes"/>
			<point x="111" y="322"/>
			<point x="189" y="236"/>
			<point x="305" y="236" type="curve" smooth="yes"/>
			<point x="336" y="236"/>
			<point x="359" y="241"/>
			<point x="395" y="257" type="curve"/>
		</contour>
		<contour>
			<point x="332" y="303" type="curve" smooth="yes"/>
			<point x="243" y="303"/>
			<point x="186" y="363"/>
			<point x="186" y="451" type="curve" smooth="yes"/>
			<point x="186" y="567"/>
			<point x="276" y="685"/>
			<point x="399" y="685" type="curve" smooth="yes"/>
			<point x="491" y="685"/>
			<point x="550" y="623"/>
			<point x="550" y="534" type="curve" smooth="yes"/>
			<point x="550" y="416"/>
			<point x="455" y="303"/>
		</contour>
	</outline>
</glyph>
<glyph name="equal" format="2">
	<unicode hex="003D"/>
	<advance width="606"/>
	<outline>
		<contour>
			<point x="118" y="362" type="line"/>
			<point x="622" y="362" type="line"/>
			<point x="636" y="436" type="line"/>
			<point x="132" y="436" type="line"/>
		</contour>
		<contour>
			<point x="81" y="164" type="line"/>
			<point x="585" y="164" type="line"/>
			<point x="599" y="238" type="line"/>
			<point x="95" y="238" type="line"/>
		</contour>
	</outline>
</glyph>
<glyph name="greater" format="2">
	<unicode hex="003E"/>
	<advance width="606"/>
	<outline>
		<contour>
			<point x="55" y="37" type="line"/>
			<point x="607" y="269" type="line"/>
			<point x="619" y="334" type="line"/>
			<point x="153" y="565" type="line"/>
			<point x="138" y="487" type="line"/>
			<point x="506" y="302" type="line"/>
			<point x="69" y="115" type="line"/>
		</contour>
	</outline>
</glyph>
<glyph name="question" format="2">
	<unicode hex="003F"/>
	<advance width="591"/>
	<outline>
		<contour>
			<point x="369" y="193" type="line"/>
			<point x="382" y="256"/>
			<point x="417" y="299"/>
			<point x="503" y="365" type="curve" smooth="yes"/>
			<point x="578" y="422"/>
			<point x="628" y="481"/>
			<point x="628" y="578" type="curve" smooth="yes"/>
			<point x="628" y="681"/>
			<point x="553" y="752"/>
			<point x="438" y="752" type="curve" smooth="yes"/>
			<point x="286" y="752"/>
			<point x="188" y="648"/>
			<point x="159" y="508" type="curve"/>
			<point x="229" y="508" type="line"/>
			<point x="256" y="607"/>
			<point x="310" y="685"/>
			<point x="426" y="685" type="curve" smooth="yes"/>
			<point x="503" y="685"/>
			<point x="553" y="637"/>
			<point x="553" y="567" type="curve" smooth="yes"/>
			<point x="553" y="498"/>
			<point x="502" y="446"/>
			<point x="441" y="397" type="curve"/>
			<point x="352" y="328"/>
			<point x="315" y="275"/>
			<point x="299" y="193" type="curve"/>
		</contour>
		<contour>
			<point x="261" y="0" type="line"/>
			<point x="335" y="0" type="line"/>
			<point x="358" y="126" type="line"/>
			<point x="284" y="126" type="line"/>
		</contour>
	</outline>
</glyph>
<glyph name="C" format="2">
	<unicode hex="0043"/>
	<advance width="813"/>
	<outline>
		<contour>
			<point x="724" y="194" type="line"/>
			<point x="645" y="91"/>
			<point x="572" y="55"/>
			<point x="441" y="55" type="curve" smooth="yes"/>
			<point x="291" y="55"/>
			<point x="182" y="164"/>
			<point x="182" y="312" type="curve" smooth="yes"/>
			<point x="182" y="519"/>
			<point x="349" y="684"/>
			<point x="557" y="684" type="curve" smooth="yes"/>
			<point x="669" y="684"/>
			<point x="746" y="638"/>
			<point x="785" y="547" type="curve"/>
			<point x="868" y="547" type="line"/>
			<point x="835" y="674"/>
			<point x="720" y="752"/>
			<point x="566" y="752" type="curve" smooth="yes"/>
			<point x="307" y="752"/>
			<point x="105" y="552"/>
			<point x="105" y="294" type="curve" smooth="yes"/>
			<point x="105" y="112"/>
			<point x="238" y="-13"/>
			<point x="430" y="-13" type="curve" smooth="yes"/>
			<point x="595" y="-13"/>
			<point x="697" y="43"/>
			<point x="806" y="194" type="curve"/>
		</contour>
	</outline>
</glyph>
<glyph name="O" format="2">
	<unicode hex="004F"/>
	<advance width="869"/>
	<outline>
		<contour>
			<point x="106" y="302" type="curve" smooth="yes"/>
			<point x="106" y="124"/>
			<point x="242" y="-13"/>
			<point x="433" y="-13" type="curve" smooth="yes"/>
			<point x="691" y="-13"/>
			<point x="900" y="177"/>
			<point x="900" y="437" type="curve" smooth="yes"/>
			<point x="900" y="615"/>
			<point x="765" y="752"/>
			<point x="579" y="752" type="curve" smooth="yes"/>
			<point x="317" y="752"/>
			<point x="106" y="566"/>
		</contour>
		<contour>
			<point x="182" y="313" type="curve" smooth="yes"/>
			<point x="182" y="523"/>
			<point x="349" y="684"/>
			<point x="558" y="684" type="curve" smooth="yes"/>
			<point x="715" y="684"/>
			<point x="824" y="573"/>
			<point x="824" y="426" type="curve" smooth="yes"/>
			<point x="824" y="214"/>
			<point x="656" y="55"/>
			<point x="445" y="55" type="curve" smooth="yes"/>
			<point x="291" y="55"/>
			<point x="182" y="167"/>
		</contour>
	</outline>
</glyph>
<glyph name="Q" format="2">
	<unicode hex="0051"/>
	<advance width="871"/>
	<outline>
		<contour>
			<point x="837" y="56" type="line"/>
			<point x="830" y="55"/>
			<point x="825" y="55"/>
			<point x="822" y="55" type="curve" smooth="yes"/>
			<point x="791" y="55"/>
			<point x="765" y="66"/>
			<point x="733" y="93" type="curve"/>
			<point x="845" y="175"/>
			<point x="915" y="306"/>
			<point x="915" y="445" type="curve" smooth="yes"/>
			<point x="915" y="625"/>
			<point x="783" y="752"/>
			<point x="583" y="752" type="curve" smooth="yes"/>
			<point x="336" y="752"/>
			<point x="106" y="552"/>
			<point x="106" y="300" type="curve" smooth="yes"/>
			<point x="106" y="120"/>
			<point x="243" y="-13"/>
			<point x="441" y="-13" type="curve" smooth="yes"/>
			<point x="523" y="-13"/>
			<point x="603" y="9"/>
			<point x="674" y="51" type="curve"/>
			<point x="710" y="10"/>
			<point x="763" y="-15"/>
			<point x="803" y="-15" type="curve" smooth="yes"/>
			<point x="811" y="-15"/>
			<point x="819" y="-14"/>
			<point x="825" y="-13" type="curve"/>
		</contour>
		<contour>
			<point x="201" y="216" type="curve"/>
			<point x="244" y="232"/>
			<point x="274" y="237"/>
			<point x="321" y="237" type="curve" smooth="yes"/>
			<point x="447" y="237"/>
			<point x="535" y="198"/>
			<point x="624" y="100" type="curve"/>
			<point x="569" y="69"/>
			<point x="516" y="55"/>
			<point x="453" y="55" type="curve" smooth="yes"/>
			<point x="336" y="55"/>
			<point x="235" y="119"/>
		</contour>
		<contour>
			<point x="182" y="279" type="curve"/>
			<point x="182" y="497"/>
			<point x="342" y="684"/>
			<point x="569" y="684" type="curve" smooth="yes"/>
			<point x="730" y="684"/>
			<point x="838" y="577"/>
			<point x="838" y="430" type="curve" smooth="yes"/>
			<point x="838" y="312"/>
			<point x="779" y="216"/>
			<point x="689" y="142" type="curve"/>
			<point x="584" y="247"/>
			<point x="507" y="305"/>
			<point x="345" y="305" type="curve" smooth="yes"/>
			<point x="288" y="305"/>
			<point x="243" y="298"/>
		</contour>
	</outline>
</glyph>
<glyph name="bracketleft" format="2">
	<unicode hex="005B"/>
	<advance width="351"/>
	<outline>
		<contour>
			<point x="304" y="-50" type="line"/>
			<point x="235" y="-17"/>
			<point x="206" y="23"/>
			<point x="206" y="95" type="curve" smooth="yes"/>
			<point x="206" y="119"/>
			<point x="209" y="146"/>
			<point x="215" y="177" type="curve" smooth="yes"/>
			<point x="265" y="448" type="line" smooth="yes"/>
			<point x="287" y="566"/>
			<point x="330" y="621"/>
			<point x="436" y="664" type="curve"/>
			<point x="450" y="739" type="line"/>
			<point x="315" y="706"/>
			<point x="223" y="597"/>
			<point x="198" y="462" type="curve" smooth="yes"/>
			<point x="142" y="164" type="line" smooth="yes"/>
			<point x="136" y="132"/>
			<point x="133" y="104"/>
			<point x="133" y="79" type="curve" smooth="yes"/>
			<point x="133" y="-20"/>
			<point x="195" y="-97"/>
			<point x="290" y="-125" type="curve"/>
		</contour>
	</outline>
</glyph>
<glyph name="b" format="2">
	<unicode hex="0062"/>
	<advance width="682"/>
	<outline>
		<contour>
			<point x="63" y="0" type="line"/>
			<point x="137" y="0" type="line"/>
			<point x="154" y="94" type="line"/>
			<point x="187" y="26"/>
			<point x="259" y="-13"/>
			<point x="349" y="-13" type="curve" smooth="yes"/>
			<point x="534" y="-13"/>
			<point x="696" y="144"/>
			<point x="696" y="329" type="curve" smooth="yes"/>
			<point x="696" y="463"/>
			<point x="599" y="560"/>
			<point x="456" y="560" type="curve" smooth="yes"/>
			<point x="364" y="560"/>
			<point x="281" y="522"/>
			<point x="221" y="453" type="curve"/>
			<point x="274" y="739" type="line"/>
			<point x="200" y="739" type="line"/>
		</contour>
		<contour>
			<point x="179" y="232" type="curve" smooth="yes"/>
			<point x="179" y="368"/>
			<point x="301" y="492"/>
			<point x="438" y="492" type="curve" smooth="yes"/>
			<point x="549" y="492"/>
			<point x="620" y="422"/>
			<point x="620" y="320" type="curve" smooth="yes"/>
			<point x="620" y="179"/>
			<point x="502" y="55"/>
			<point x="359" y="55" type="curve" smooth="yes"/>
			<point x="252" y="55"/>
			<point x="179" y="131"/>
		</contour>
	</outline>
</glyph>
<glyph name="c" format="2">
	<unicode hex="0063"/>
	<advance width="647"/>
	<outline>
		<contour>
			<point x="554" y="161" type="line"/>
			<point x="483" y="85"/>
			<point x="425" y="55"/>
			<point x="347" y="55" type="curve" smooth="yes"/>
			<point x="238" y="55"/>
			<point x="164" y="130"/>
			<point x="164" y="232" type="curve" smooth="yes"/>
			<point x="164" y="369"/>
			<point x="288" y="492"/>
			<point x="425" y="492" type="curve" smooth="yes"/>
			<point x="506" y="492"/>
			<point x="566" y="453"/>
			<point x="595" y="381" type="curve"/>
			<point x="678" y="381" type="line"/>
			<point x="654" y="491"/>
			<point x="563" y="560"/>
			<point x="439" y="560" type="curve" smooth="yes"/>
			<point x="258" y="560"/>
			<point x="88" y="405"/>
			<point x="88" y="221" type="curve" smooth="yes"/>
			<point x="88" y="85"/>
			<point x="189" y="-13"/>
			<point x="338" y="-13" type="curve" smooth="yes"/>
			<point x="472" y="-13"/>
			<point x="563" y="57"/>
			<point x="638" y="161" type="curve"/>
		</contour>
	</outline>
</glyph>
<glyph name="h" format="2">
	<unicode hex="0068"/>
	<advance width="610"/>
	<outline>
		<contour>
			<point x="63" y="0" type="line"/>
			<point x="137" y="0" type="line"/>
			<point x="193" y="300" type="line" smooth="yes"/>
			<point x="213" y="407"/>
			<point x="275" y="492"/>
			<point x="395" y="492" type="curve" smooth="yes"/>
			<point x="481" y="492"/>
			<point x="534" y="442"/>
			<point x="534" y="358" type="curve" smooth="yes"/>
			<point x="534" y="339"/>
			<point x="532" y="318"/>
			<point x="527" y="294" type="curve" smooth="yes"/>
			<point x="473" y="0" type="line"/>
			<point x="547" y="0" type="line"/>
			<point x="601" y="294" type="line" smooth="yes"/>
			<point x="607" y="326"/>
			<point x="610" y="353"/>
			<point x="610" y="378" type="curve" smooth="yes"/>
			<point x="610" y="497"/>
			<point x="534" y="560"/>
			<point x="414" y="560" type="curve" smooth="yes"/>
			<point x="340" y="560"/>
			<point x="272" y="530"/>
			<point x="225" y="476" type="curve"/>
			<point x="274" y="739" type="line"/>
			<point x="200" y="739" type="line"/>
		</contour>
	</outline>
</glyph>
<glyph name="braceleft" format="2">
	<unicode hex="007B"/>
	<advance width="351"/>
	<outline>
		<contour>
			<point x="281" y="-59" type="line"/>
			<point x="228" y="-54"/>
			<point x="213" y="-44"/>
			<point x="213" y="-15" type="curve" smooth="yes"/>
			<point x="213" y="-7"/>
			<point x="214" y="1"/>
			<point x="216" y="12" type="curve" smooth="yes"/>
			<point x="248" y="182" type="line" smooth="yes"/>
			<point x="251" y="199"/>
			<point x="253" y="214"/>
			<point x="253" y="226" type="curve" smooth="yes"/>
			<point x="253" y="276"/>
			<point x="225" y="291"/>
			<point x="182" y="306" type="curve"/>
			<point x="254" y="323"/>
			<point x="277" y="342"/>
			<point x="294" y="431" type="curve" smooth="yes"/>
			<point x="325" y="601" type="line"/>
			<point x="338" y="665"/>
			<point x="361" y="667"/>
			<point x="417" y="672" type="curve"/>
			<point x="429" y="739" type="line"/>
			<point x="323" y="739"/>
			<point x="269" y="714"/>
			<point x="248" y="600" type="curve" smooth="yes"/>
			<point x="217" y="430" type="line" smooth="yes"/>
			<point x="206" y="368"/>
			<point x="188" y="352"/>
			<point x="121" y="341" type="curve"/>
			<point x="108" y="272" type="line"/>
			<point x="157" y="263"/>
			<point x="175" y="252"/>
			<point x="175" y="218" type="curve" smooth="yes"/>
			<point x="175" y="208"/>
			<point x="174" y="197"/>
			<point x="171" y="183" type="curve" smooth="yes"/>
			<point x="139" y="13" type="line" smooth="yes"/>
			<point x="136" y="-4"/>
			<point x="135" y="-20"/>
			<point x="135" y="-34" type="curve" smooth="yes"/>
			<point x="135" y="-121"/>
			<point x="198" y="-126"/>
			<point x="269" y="-126" type="curve"/>
		</contour>
	</outline>
</glyph>
<glyph name="sterling" format="2">
	<unicode hex="00A3"/>
	<advance width="554"/>
	<outline>
		<contour>
			<point x="59" y="0" type="line"/>
			<point x="344" y="0" type="line" smooth="yes"/>
			<point x="488" y="0"/>
			<point x="635" y="82"/>
			<point x="635" y="245" type="curve" smooth="yes"/>
			<point x="635" y="252"/>
			<point x="635" y="259"/>
			<point x="634" y="268" type="curve"/>
			<point x="562" y="268" type="line"/>
			<point x="564" y="261"/>
			<point x="565" y="253"/>
			<point x="565" y="244" type="curve" smooth="yes"/>
			<point x="565" y="120"/>
			<point x="475" y="67"/>
			<point x="354" y="67" type="curve" smooth="yes"/>
			<point x="297" y="67" type="line"/>
			<point x="326" y="113"/>
			<point x="352" y="165"/>
			<point x="352" y="220" type="curve" smooth="yes"/>
			<point x="352" y="264"/>
			<point x="336" y="306"/>
			<point x="306" y="347" type="curve"/>
			<point x="521" y="347" type="line"/>
			<point x="534" y="414" type="line"/>
			<point x="250" y="414" type="line"/>
			<point x="240" y="440"/>
			<point x="236" y="457"/>
			<point x="236" y="476" type="curve" smooth="yes"/>
			<point x="236" y="600"/>
			<point x="308" y="685"/>
			<point x="434" y="685" type="curve" smooth="yes"/>
			<point x="526" y="685"/>
			<point x="582" y="632"/>
			<point x="585" y="541" type="curve"/>
			<point x="654" y="541" type="line"/>
			<point x="655" y="547"/>
			<point x="656" y="561"/>
			<point x="656" y="570" type="curve" smooth="yes"/>
			<point x="656" y="676"/>
			<point x="572" y="752"/>
			<point x="445" y="752" type="curve" smooth="yes"/>
			<point x="274" y="752"/>
			<point x="162" y="644"/>
			<point x="162" y="472" type="curve" smooth="yes"/>
			<point x="162" y="455"/>
			<point x="165" y="438"/>
			<point x="170" y="414" type="curve"/>
			<point x="95" y="414" type="line"/>
			<point x="82" y="347" type="line"/>
			<point x="208" y="347" type="line"/>
			<point x="259" y="293"/>
			<point x="278" y="262"/>
			<point x="278" y="220" type="curve" smooth="yes"/>
			<point x="278" y="163"/>
			<point x="252" y="105"/>
			<point x="210" y="67" type="curve"/>
			<point x="71" y="67" type="line"/>
		</contour>
	</outline>
</glyph>
<glyph name="currency" format="2">
	<unicode hex="00A4"/>
	<advance width="554"/>
	<outline>
		<contour>
			<point x="95" y="58" type="line"/>
			<point x="145" y="100" type="line"/>
			<point x="192" y="63"/>
			<point x="228" y="50"/>
			<point x="285" y="50" type="curve" smooth="yes"/>
			<point x="342" y="50"/>
			<point x="382" y="62"/>
			<point x="447" y="100" type="curve"/>
			<point x="480" y="58" type="line"/>
			<point x="544" y="111" type="line"/>
			<point x="509" y="153" type="line"/>
			<point x="548" y="191"/>
			<point x="573" y="240"/>
			<point x="584" y="300" type="curve" smooth="yes"/>
			<point x="588" y="319"/>
			<point x="589" y="337"/>
			<point x="589" y="354" type="curve" smooth="yes"/>
			<point x="589" y="389"/>
			<point x="582" y="420"/>
			<point x="566" y="452" type="curve"/>
			<point x="615" y="494" type="line"/>
			<point x="571" y="549" type="line"/>
			<point x="520" y="507" type="line"/>
			<point x="482" y="538"/>
			<point x="436" y="553"/>
			<point x="378" y="553" type="curve" smooth="yes"/>
			<point x="322" y="553"/>
			<point x="280" y="540"/>
			<point x="221" y="506" type="curve"/>
			<point x="186" y="548" type="line"/>
			<point x="121" y="494" type="line"/>
			<point x="157" y="452" type="line"/>
			<point x="115" y="406"/>
			<point x="93" y="362"/>
			<point x="82" y="303" type="curve" smooth="yes"/>
			<point x="78" y="284"/>
			<point x="77" y="266"/>
			<point x="77" y="249" type="curve" smooth="yes"/>
			<point x="77" y="214"/>
			<point x="84" y="183"/>
			<point x="100" y="153" type="curve"/>
			<point x="52" y="112" type="line"/>
		</contour>
		<contour>
			<point x="150" y="266" type="curve" smooth="yes"/>
			<point x="150" y="277"/>
			<point x="151" y="290"/>
			<point x="153" y="302" type="curve" smooth="yes"/>
			<point x="172" y="405"/>
			<point x="264" y="483"/>
			<point x="365" y="483" type="curve" smooth="yes"/>
			<point x="459" y="483"/>
			<point x="517" y="427"/>
			<point x="517" y="341" type="curve" smooth="yes"/>
			<point x="517" y="329"/>
			<point x="515" y="315"/>
			<point x="513" y="302" type="curve"/>
			<point x="494" y="200"/>
			<point x="403" y="122"/>
			<point x="302" y="122" type="curve" smooth="yes"/>
			<point x="210" y="122"/>
			<point x="150" y="181"/>
		</contour>
	</outline>
</glyph>
<glyph name="guillemotleft" format="2">
	<unicode hex="00AB"/>
	<advance width="425"/>
	<outline>
		<contour>
			<point x="171" y="99" type="line"/>
			<point x="236" y="132" type="line"/>
			<point x="174" y="300" type="line"/>
			<point x="299" y="467" type="line"/>
			<point x="245" y="499" type="line"/>
			<point x="96" y="302" type="line"/>
			<point x="96" y="298" type="line"/>
		</contour>
		<contour>
			<point x="344" y="99" type="line"/>
			<point x="409" y="132" type="line"/>
			<point x="347" y="300" type="line"/>
			<point x="472" y="467" type="line"/>
			<point x="418" y="499" type="line"/>
			<point x="267" y="302" type="line"/>
			<point x="267" y="298" type="line"/>
		</contour>
	</outline>
</glyph>
<glyph name="twosuperior" format="2">
	<unicode hex="00B2"/>
	<advance width="332"/>
	<outline>
		<contour>
			<point x="65" y="288" type="line"/>
			<point x="371" y="288" type="line"/>
			<point x="382" y="343" type="line"/>
			<point x="165" y="343" type="line"/>
			<point x="320" y="464" type="line" smooth="yes"/>
			<point x="374" y="505"/>
			<point x="435" y="557"/>
			<point x="435" y="631" type="curve" smooth="yes"/>
			<point x="435" y="697"/>
			<point x="383" y="747"/>
			<point x="309" y="747" type="curve" smooth="yes"/>
			<point x="209" y="747"/>
			<point x="140" y="679"/>
			<point x="124" y="583" type="curve"/>
			<point x="184" y="583" type="line"/>
			<point x="194" y="641"/>
			<point x="229" y="692"/>
			<point x="296" y="692" type="curve" smooth="yes"/>
			<point x="341" y="692"/>
			<point x="373" y="661"/>
			<point x="373" y="622" type="curve" smooth="yes"/>
			<point x="373" y="589"/>
			<point x="354" y="561"/>
			<point x="329" y="541" type="curve" smooth="yes"/>
			<point x="75" y="339" type="line"/>
		</contour>
	</outline>
</glyph>
<glyph name="onehalf" format="2">
	<unicode hex="00BD"/>
	<advance width="831"/>
	<outline>
		<contour>
			<point x="206" y="0" type="line"/>
			<point x="260" y="0" type="line"/>
			<point x="739" y="739" type="line"/>
			<point x="684" y="739" type="line"/>
		</contour>
		<contour>
			<point x="224" y="288" type="line"/>
			<point x="284" y="288" type="line"/>
			<point x="368" y="739" type="line"/>
			<point x="233" y="739" type="line"/>
			<point x="223" y="684" type="line"/>
			<point x="298" y="684" type="line"/>
		</contour>
		<contour>
			<point x="506" y="0" type="line"/>
			<point x="812" y="0" type="line"/>
			<point x="822" y="55" type="line"/>
			<point x="605" y="55" type="line"/>
			<point x="761" y="176" type="line"/>
			<point x="817" y="218"/>
			<point x="875" y="268"/>
			<point x="875" y="343" type="curve" smooth="yes"/>
			<point x="875" y="409"/>
			<point x="824" y="459"/>
			<point x="750" y="459" type="curve" smooth="yes"/>
			<point x="650" y="459"/>
			<point x="581" y="391"/>
			<point x="565" y="295" type="curve"/>
			<point x="625" y="295" type="line"/>
			<point x="635" y="354"/>
			<point x="669" y="404"/>
			<point x="737" y="404" type="curve" smooth="yes"/>
			<point x="782" y="404"/>
			<point x="814" y="373"/>
			<point x="814" y="334" type="curve" smooth="yes"/>
			<point x="814" y="303"/>
			<point x="793" y="272"/>
			<point x="770" y="253" type="curve" smooth="yes"/>
			<point x="515" y="51" type="line"/>
		</contour>
	</outline>
</glyph>
<glyph name="Aacute" format="2">
	<unicode hex="00C1"/>
	<advance width="740"/>
	<outline>
		<component base="A"/>
		<contour>
			<point x="471" y="792" type="line"/>
			<point x="685" y="906" type="line"/>
			<point x="662" y="964" type="line"/>
			<point x="447" y="848" type="line"/>
		</contour>
	</outline>
</glyph>
<glyph name="Atilde" format="2">
	<unicode hex="00C3"/>
	<advance width="740"/>
	<outline>
		<component base="A"/>
		<contour>
			<point x="412" y="815" type="line"/>
			<point x="435" y="837"/>
			<point x="451" y="847"/>
			<point x="478" y="847" type="curve" smooth="yes"/>
			<point x="489" y="847"/>
			<point x="502" y="845"/>
			<point x="516" y="837" type="curve" smooth="yes"/>
			<point x="546" y="820"/>
			<point x="563" y="815"/>
			<point x="578" y="815" type="curve" smooth="yes"/>
			<point x="611" y="815"/>
			<point x="657" y="838"/>
			<point x="678" y="864" type="curve"/>
			<point x="654" y="910" type="line"/>
			<point x="629" y="888"/>
			<point x="610" y="879"/>
			<point x="591" y="879" type="curve" smooth="yes"/>
			<point x="582" y="879"/>
			<point x="562" y="885"/>
			<point x="546" y="893" type="curve" smooth="yes"/>
			<point x="518" y="907"/>
			<point x="508" y="910"/>
			<point x="490" y="910" type="curve" smooth="yes"/>
			<point x="454" y="910"/>
			<point x="417" y="892"/>
			<point x="388" y="861" type="curve"/>
		</contour>
	</outline>
</glyph>
<glyph name="Adieresis" format="2">
	<unicode hex="00C4"/>
	<advance width="740"/>
	<outline>
		<component base="A"/>
		<contour>
			<point x="409" y="805" type="line"/>
			<point x="483" y="805" type="line"/>
			<point x="507" y="931" type="line"/>
			<point x="433" y="931" type="line"/>
		</contour>
		<contour>
			<point x="556" y="805" type="line"/>
			<point x="630" y="805" type="line"/>
			<point x="654" y="931" type="line"/>
			<point x="580" y="931" type="line"/>
		</contour>
	</outline>
</glyph>
<glyph name="Aring" format="2">
	<unicode hex="00C5"/>
	<advance width="740"/>
	<outline>
		<component base="A"/>
		<contour>
			<point x="440" y="867" type="curve" smooth="yes"/>
			<point x="440" y="825"/>
			<point x="472" y="792"/>
			<point x="517" y="792" type="curve" smooth="yes"/>
			<point x="575" y="792"/>
			<point x="627" y="843"/>
			<point x="627" y="901" type="curve" smooth="yes"/>
			<point x="627" y="943"/>
			<point x="596" y="976"/>
			<point x="552" y="976" type="curve" smooth="yes"/>
			<point x="496" y="976"/>
			<point x="440" y="924"/>
		</contour>
		<contour>
			<point x="482" y="874" type="curve" smooth="yes"/>
			<point x="482" y="905"/>
			<point x="511" y="935"/>
			<point x="542" y="935" type="curve" smooth="yes"/>
			<point x="568" y="935"/>
			<point x="586" y="917"/>
			<point x="586" y="893" type="curve" smooth="yes"/>
			<point x="586" y="861"/>
			<point x="555" y="833"/>
			<point x="524" y="833" type="curve" smooth="yes"/>
			<point x="499" y="833"/>
			<point x="482" y="850"/>
		</contour>
	</outline>
</glyph>
<glyph name="Ograve" format="2">
	<unicode hex="00D2"/>
	<advance width="869"/>
	<outline>
		<component base="O"/>
		<contour>
			<point x="453" y="900" type="line"/>
			<point x="630" y="792" type="line"/>
			<point x="673" y="848" type="line"/>
			<point x="496" y="958" type="line"/>
		</contour>
	</outline>
</glyph>
<glyph name="agrave" format="2">
	<unicode hex="00E0"/>
	<advance width="683"/>
	<outline>
		<component base="a"/>
		<contour>
			<point x="336" y="718" type="line"/>
			<point x="513" y="610" type="line"/>
			<point x="556" y="666" type="line"/>
			<point x="379" y="776" type="line"/>
		</contour>
	</outline>
</glyph>
<glyph name="aacute" format="2">
	<unicode hex="00E1"/>
	<advance width="683"/>
	<outline>
		<component base="a"/>
		<contour>
			<point x="418" y="610" type="line"/>
			<point x="632" y="724" type="line"/>
			<point x="609" y="782" type="line"/>
			<point x="394" y="666" type="line"/>
		</contour>
	</outline>
</glyph>
<glyph name="adieresis" format="2">
	<unicode hex="00E4"/>
	<advance width="683"/>
	<outline>
		<component base="a"/>
		<contour>
			<point x="356" y="623" type="line"/>
			<point x="430" y="623" type="line"/>
			<point x="454" y="749" type="line"/>
			<point x="380" y="749" type="line"/>
		</contour>
		<contour>
			<point x="503" y="623" type="line"/>
			<point x="577" y="623" type="line"/>
			<point x="601" y="749" type="line"/>
			<point x="527" y="749" type="line"/>
		</contour>
	</outline>
</glyph>
<glyph name="ecircumflex" format="2">
	<unicode hex="00EA"/>
	<advance width="650"/>
	<outline>
		<component base="e"/>
		<contour>
			<point x="268" y="623" type="line"/>
			<point x="359" y="623" type="line"/>
			<point x="461" y="697" type="line"/>
			<point x="533" y="623" type="line"/>
			<point x="622" y="623" type="line"/>
			<point x="503" y="749" type="line"/>
			<point x="437" y="749" type="line"/>
		</contour>
	</outline>
</glyph>
<glyph name="ograve" format="2">
	<unicode hex="00F2"/>
	<advance width="655"/>
	<outline>
		<component base="o"/>
		<contour>
			<point x="312" y="718" type="line"/>
			<point x="489" y="610" type="line"/>
			<point x="532" y="666" type="line"/>
			<point x="355" y="776" type="line"/>
		</contour>
	</outline>
</glyph>
<glyph name="oacute" format="2">
	<unicode hex="00F3"/>
	<advance width="655"/>
	<outline>
		<component base="o"/>
		<contour>
			<point x="394" y="610" type="line"/>
			<point x="608" y="724" type="line"/>
			<point x="585" y="782" type="line"/>
			<point x="370" y="666" type="line"/>
		</contour>
	</outline>
</glyph>
<glyph name="ocircumflex" format="2">
	<unicode hex="00F4"/>
	<advance width="655"/>
	<outline>
		<component base="o"/>
		<contour>
			<point x="265" y="623" type="line"/>
			<point x="356" y="623" type="line"/>
			<point x="458" y="697" type="line"/>
			<point x="530" y="623" type="line"/>
			<point x="619" y="623" type="line"/>
			<point x="500" y="749" type="line"/>
			<point x="434" y="749" type="line"/>
		</contour>
	</outline>
</glyph>
<glyph name="breve" format="2">
	<unicode hex="02D8"/>
	<advance width="453"/>
	<outline>
		<contour>
			<point x="212" y="743" type="line"/>
			<point x="212" y="660"/>
			<point x="252" y="623"/>
			<point x="341" y="623" type="curve" smooth="yes"/>
			<point x="429" y="623"/>
			<point x="486" y="659"/>
			<point x="516" y="743" type="curve"/>
			<point x="452" y="743" type="line"/>
			<point x="436" y="698"/>
			<point x="399" y="681"/>
			<point x="352" y="681" type="curve" smooth="yes"/>
			<point x="307" y="681"/>
			<point x="276" y="695"/>
			<point x="276" y="743" type="curve"/>
		</contour>
	</outline>
</glyph>
<glyph name="Djecyr" format="2">
	<unicode hex="0402"/>
	<advance width="670"/>
	<outline>
		<contour>
			<point x="176" y="0" type="line"/>
			<point x="250" y="0" type="line"/>
			<point x="319" y="373" type="line"/>
			<point x="461" y="373" type="line" smooth="yes"/>
			<point x="541" y="373"/>
			<point x="615" y="354"/>
			<point x="615" y="258" type="curve" smooth="yes"/>
			<point x="615" y="93"/>
			<point x="508" y="54"/>
			<point x="362" y="54" type="curve"/>
			<point x="350" y="-13" type="line"/>
			<point x="550" y="-13"/>
			<point x="691" y="55"/>
			<point x="691" y="274" type="curve" smooth="yes"/>
			<point x="691" y="406"/>
			<point x="595" y="440"/>
			<point x="479" y="440" type="curve" smooth="yes"/>
			<point x="332" y="440" type="line"/>
			<point x="375" y="672" type="line"/>
			<point x="564" y="672" type="line"/>
			<point x="576" y="739" type="line"/>
			<point x="144" y="739" type="line"/>
			<point x="132" y="672" type="line"/>
			<point x="301" y="672" type="line"/>
		</contour>
	</outline>
</glyph>
<glyph name="Eukrcyr" format="2">
	<unicode hex="0404"/>
	<advance width="813"/>
	<outline>
		<contour>
			<point x="205" y="410" type="line"/>
			<point x="255" y="575"/>
			<point x="395" y="684"/>
			<point x="557" y="684" type="curve" smooth="yes"/>
			<point x="679" y="684"/>
			<point x="748" y="631"/>
			<point x="785" y="547" type="curve"/>
			<point x="868" y="547" type="line"/>
			<point x="835" y="674"/>
			<point x="719" y="752"/>
			<point x="566" y="752" type="curve" smooth="yes"/>
			<point x="314" y="752"/>
			<point x="105" y="554"/>
			<point x="105" y="317" type="curve" smooth="yes"/>
			<point x="105" y="107"/>
			<point x="223" y="-13"/>
			<point x="430" y="-13" type="curve" smooth="yes"/>
			<point x="580" y="-13"/>
			<point x="707" y="57"/>
			<point x="806" y="194" type="curve"/>
			<point x="724" y="194" type="line"/>
			<point x="649" y="115"/>
			<point x="560" y="55"/>
			<point x="441" y="55" type="curve" smooth="yes"/>
			<point x="274" y="55"/>
			<point x="189" y="152"/>
			<point x="189" y="343" type="curve"/>
			<point x="653" y="343" type="line"/>
			<point x="665" y="410" type="line"/>
		</contour>
	</outline>
</glyph>
<glyph name="Ljecyr" format="2">
	<unicode hex="0409"/>
	<advance width="1057"/>
	<outline>
		<contour>
			<point x="11" y="0" type="line"/>
			<point x="99" y="0" type="line"/>
			<point x="662" y="644" type="line"/>
			<point x="543" y="0" type="line"/>
			<point x="747" y="0" type="line" smooth="yes"/>
			<point x="919" y="0"/>
			<point x="1077" y="60"/>
			<point x="1077" y="264" type="curve" smooth="yes"/>
			<point x="1077" y="408"/>
			<point x="956" y="425"/>
			<point x="838" y="425" type="curve" smooth="yes"/>
			<point x="696" y="425" type="line"/>
			<point x="754" y="739" type="line"/>
			<point x="659" y="739" type="line"/>
		</contour>
		<contour>
			<point x="629" y="67" type="line"/>
			<point x="683" y="358" type="line"/>
			<point x="820" y="358" type="line" smooth="yes"/>
			<point x="901" y="358"/>
			<point x="1000" y="354"/>
			<point x="1000" y="249" type="curve" smooth="yes"/>
			<point x="1000" y="83"/>
			<point x="867" y="67"/>
			<point x="734" y="67" type="curve" smooth="yes"/>
		</contour>
	</outline>
</glyph>
<glyph name="Njecyr" format="2">
	<unicode hex="040A"/>
	<advance width="1017"/>
	<outline>
		<contour>
			<point x="76" y="0" type="line"/>
			<point x="150" y="0" type="line"/>
			<point x="216" y="358" type="line"/>
			<point x="569" y="358" type="line"/>
			<point x="503" y="0" type="line"/>
			<point x="707" y="0" type="line" smooth="yes"/>
			<point x="879" y="0"/>
			<point x="1037" y="60"/>
			<point x="1037" y="264" type="curve" smooth="yes"/>
			<point x="1037" y="408"/>
			<point x="916" y="425"/>
			<point x="798" y="425" type="curve" smooth="yes"/>
			<point x="656" y="425" type="line"/>
			<point x="714" y="739" type="line"/>
			<point x="640" y="739" type="line"/>
			<point x="582" y="425" type="line"/>
			<point x="229" y="425" type="line"/>
			<point x="287" y="739" type="line"/>
			<point x="213" y="739" type="line"/>
		</contour>
		<contour>
			<point x="589" y="67" type="line"/>
			<point x="643" y="358" type="line"/>
			<point x="780" y="358" type="line" smooth="yes"/>
			<point x="861" y="358"/>
			<point x="960" y="354"/>
			<point x="960" y="249" type="curve" smooth="yes"/>
			<point x="960" y="83"/>
			<point x="827" y="67"/>
			<point x="694" y="67" type="curve" smooth="yes"/>
		</contour>
	</outline>
</glyph>
<glyph name="Igravecyr" format="2">
	<unicode hex="040D"/>
	<advance width="740"/>
	<outline>
		<contour>
			<point x="348" y="900" type="line"/>
			<point x="525" y="792" type="line"/>
			<point x="568" y="848" type="line"/>
			<point x="391" y="958" type="line"/>
		</contour>
		<contour>
			<point x="76" y="0" type="line"/>
			<point x="150" y="0" type="line"/>
			<point x="707" y="629" type="line"/>
			<point x="590" y="0" type="line"/>
			<point x="664" y="0" type="line"/>
			<point x="801" y="739" type="line"/>
			<point x="727" y="739" type="line"/>
			<point x="170" y="110" type="line"/>
			<point x="287" y="739" type="line"/>
			<point x="213" y="739" type="line"/>
		</contour>
	</outline>
</glyph>
<glyph name="Checyr" format="2">
	<unicode hex="0427"/>
	<advance width="595"/>
	<outline>
		<contour>
			<point x="445" y="0" type="line"/>
			<point x="519" y="0" type="line"/>
			<point x="656" y="739" type="line"/>
			<point x="582" y="739" type="line"/>
			<point x="513" y="368" type="line"/>
			<point x="466" y="362"/>
			<point x="423" y="357"/>
			<point x="376" y="357" type="curve" smooth="yes"/>
			<point x="294" y="357"/>
			<point x="208" y="364"/>
			<point x="208" y="465" type="curve" smooth="yes"/>
			<point x="208" y="479"/>
			<point x="210" y="494"/>
			<point x="213" y="510" type="curve" smooth="yes"/>
			<point x="255" y="739" type="line"/>
			<point x="180" y="739" type="line"/>
			<point x="138" y="510" type="line" smooth="yes"/>
			<point x="134" y="488"/>
			<point x="131" y="468"/>
			<point x="131" y="448" type="curve" smooth="yes"/>
			<point x="131" y="314"/>
			<point x="246" y="290"/>
			<point x="359" y="290" type="curve" smooth="yes"/>
			<point x="412" y="290"/>
			<point x="454" y="295"/>
			<point x="501" y="301" type="curve"/>
		</contour>
	</outline>
</glyph>
<glyph name="Ereversedcyr" format="2">
	<unicode hex="042D"/>
	<advance width="813"/>
	<outline>
		<contour>
			<point x="79" y="194" type="line"/>
			<point x="128" y="57"/>
			<point x="229" y="-13"/>
			<point x="379" y="-13" type="curve" smooth="yes"/>
			<point x="628" y="-13"/>
			<point x="844" y="196"/>
			<point x="844" y="445" type="curve" smooth="yes"/>
			<point x="844" y="626"/>
			<point x="718" y="752"/>
			<point x="525" y="752" type="curve" smooth="yes"/>
			<point x="372" y="752"/>
			<point x="228" y="674"/>
			<point x="147" y="547" type="curve"/>
			<point x="230" y="547" type="line"/>
			<point x="299" y="631"/>
			<point x="388" y="684"/>
			<point x="510" y="684" type="curve" smooth="yes"/>
			<point x="687" y="684"/>
			<point x="784" y="572"/>
			<point x="768" y="410" type="curve"/>
			<point x="300" y="410" type="line"/>
			<point x="288" y="343" type="line"/>
			<point x="757" y="343" type="line"/>
			<point x="713" y="182"/>
			<point x="555" y="55"/>
			<point x="392" y="55" type="curve" smooth="yes"/>
			<point x="273" y="55"/>
			<point x="206" y="115"/>
			<point x="161" y="194" type="curve"/>
		</contour>
	</outline>
</glyph>
<glyph name="zecyr" format="2">
	<unicode hex="0437"/>
	<advance width="480"/>
	<outline>
		<contour>
			<point x="65" y="158" type="line"/>
			<point x="64" y="150"/>
			<point x="64" y="142"/>
			<point x="64" y="135" type="curve" smooth="yes"/>
			<point x="64" y="51"/>
			<point x="133" y="-13"/>
			<point x="238" y="-13" type="curve" smooth="yes"/>
			<point x="343" y="-13"/>
			<point x="476" y="66"/>
			<point x="476" y="183" type="curve" smooth="yes"/>
			<point x="476" y="242"/>
			<point x="433" y="277"/>
			<point x="381" y="292" type="curve"/>
			<point x="443" y="310"/>
			<point x="493" y="368"/>
			<point x="493" y="434" type="curve" smooth="yes"/>
			<point x="493" y="507"/>
			<point x="431" y="560"/>
			<point x="343" y="560" type="curve" smooth="yes"/>
			<point x="245" y="560"/>
			<point x="159" y="494"/>
			<point x="139" y="409" type="curve"/>
			<point x="214" y="409" type="line"/>
			<point x="226" y="454"/>
			<point x="272" y="491"/>
			<point x="329" y="491" type="curve" smooth="yes"/>
			<point x="381" y="491"/>
			<point x="417" y="460"/>
			<point x="417" y="421" type="curve" smooth="yes"/>
			<point x="417" y="343"/>
			<point x="328" y="319"/>
			<point x="265" y="319" type="curve" smooth="yes"/>
			<point x="255" y="319" type="line"/>
			<point x="244" y="258" type="line"/>
			<point x="255" y="258" type="line" smooth="yes"/>
			<point x="358" y="258"/>
			<point x="400" y="219"/>
			<point x="400" y="173" type="curve" smooth="yes"/>
			<point x="400" y="100"/>
			<point x="313" y="55"/>
			<point x="249" y="55" type="curve" smooth="yes"/>
			<point x="181" y="55"/>
			<point x="140" y="95"/>
			<point x="140" y="147" type="curve" smooth="yes"/>
			<point x="140" y="158" type="line"/>
		</contour>
	</outline>
</glyph>
<glyph name="ereversedcyr" format="2">
	<unicode hex="044D"/>
	<advance width="644"/>
	<outline>
		<contour>
			<point x="68" y="155" type="line"/>
			<point x="101" y="56"/>
			<point x="176" y="-13"/>
			<point x="302" y="-13" type="curve" smooth="yes"/>
			<point x="484" y="-13"/>
			<point x="658" y="140"/>
			<point x="658" y="327" type="curve" smooth="yes"/>
			<point x="658" y="460"/>
			<point x="559" y="560"/>
			<point x="413" y="560" type="curve" smooth="yes"/>
			<point x="289" y="560"/>
			<point x="178" y="494"/>
			<point x="111" y="387" type="curve"/>
			<point x="196" y="387" type="line"/>
			<point x="251" y="455"/>
			<point x="320" y="492"/>
			<point x="401" y="492" type="curve" smooth="yes"/>
			<point x="500" y="492"/>
			<point x="583" y="431"/>
			<point x="583" y="334" type="curve" smooth="yes"/>
			<point x="583" y="326"/>
			<point x="582" y="318"/>
			<point x="581" y="310" type="curve"/>
			<point x="256" y="310" type="line"/>
			<point x="244" y="243" type="line"/>
			<point x="570" y="243" type="line"/>
			<point x="536" y="136"/>
			<point x="430" y="55"/>
			<point x="317" y="55" type="curve" smooth="yes"/>
			<point x="239" y="55"/>
			<point x="182" y="95"/>
			<point x="153" y="155" type="curve"/>
		</contour>
	</outline>
</glyph>
<glyph name="yucyr" format="2">
	<unicode hex="044E"/>
	<advance width="857"/>
	<outline>
		<contour>
			<point x="352" y="227" type="curve" smooth="yes"/>
			<point x="352" y="370"/>
			<point x="471" y="496"/>
			<point x="616" y="496" type="curve" smooth="yes"/>
			<point x="724" y="496"/>
			<point x="794" y="422"/>
			<point x="794" y="318" type="curve" smooth="yes"/>
			<point x="794" y="178"/>
			<point x="680" y="51"/>
			<point x="537" y="51" type="curve" smooth="yes"/>
			<point x="423" y="51"/>
			<point x="352" y="122"/>
		</contour>
		<contour>
			<point x="63" y="0" type="line"/>
			<point x="137" y="0" type="line"/>
			<point x="182" y="245" type="line"/>
			<point x="277" y="245" type="line"/>
			<point x="276" y="236"/>
			<point x="276" y="227"/>
			<point x="276" y="218" type="curve" smooth="yes"/>
			<point x="276" y="80"/>
			<point x="373" y="-17"/>
			<point x="527" y="-17" type="curve" smooth="yes"/>
			<point x="715" y="-17"/>
			<point x="871" y="146"/>
			<point x="871" y="332" type="curve" smooth="yes"/>
			<point x="871" y="469"/>
			<point x="776" y="564"/>
			<point x="629" y="564" type="curve" smooth="yes"/>
			<point x="475" y="564"/>
			<point x="334" y="457"/>
			<point x="290" y="312" type="curve"/>
			<point x="195" y="312" type="line"/>
			<point x="238" y="547" type="line"/>
			<point x="164" y="547" type="line"/>
		</contour>
	</outline>
</glyph>
<glyph name="eukrcyr" format="2">
	<unicode hex="0454"/>
	<advance width="644"/>
	<outline>
		<contour>
			<point x="88" y="221" type="curve" smooth="yes"/>
			<point x="88" y="85"/>
			<point x="189" y="-13"/>
			<point x="338" y="-13" type="curve" smooth="yes"/>
			<point x="464" y="-13"/>
			<point x="565" y="56"/>
			<point x="634" y="155" type="curve"/>
			<point x="549" y="155" type="line"/>
			<point x="498" y="95"/>
			<point x="425" y="55"/>
			<point x="347" y="55" type="curve" smooth="yes"/>
			<point x="233" y="55"/>
			<point x="164" y="131"/>
			<point x="164" y="243" type="curve"/>
			<point x="490" y="243" type="line"/>
			<point x="502" y="310" type="line"/>
			<point x="177" y="310" type="line"/>
			<point x="213" y="415"/>
			<point x="316" y="492"/>
			<point x="425" y="492" type="curve" smooth="yes"/>
			<point x="506" y="492"/>
			<point x="563" y="455"/>
			<point x="592" y="387" type="curve"/>
			<point x="677" y="387" type="line"/>
			<point x="650" y="494"/>
			<point x="563" y="560"/>
			<point x="439" y="560" type="curve" smooth="yes"/>
			<point x="258" y="560"/>
			<point x="88" y="405"/>
		</contour>
	</outline>
</glyph>
<glyph name="Psicyr" format="2">
	<unicode hex="0470"/>
	<advance width="703"/>
	<outline>
		<contour>
			<point x="317" y="0" type="line"/>
			<point x="391" y="0" type="line"/>
			<point x="437" y="247" type="line"/>
			<point x="606" y="261"/>
			<point x="711" y="367"/>
			<point x="742" y="536" type="curve" smooth="yes"/>
			<point x="780" y="739" type="line"/>
			<point x="706" y="739" type="line"/>
			<point x="668" y="536" type="line" smooth="yes"/>
			<point x="645" y="412"/>
			<point x="578" y="329"/>
			<point x="449" y="315" type="curve"/>
			<point x="528" y="739" type="line"/>
			<point x="454" y="739" type="line"/>
			<point x="375" y="315" type="line"/>
			<point x="272" y="325"/>
			<point x="227" y="383"/>
			<point x="227" y="472" type="curve" smooth="yes"/>
			<point x="227" y="492"/>
			<point x="229" y="513"/>
			<point x="233" y="536" type="curve" smooth="yes"/>
			<point x="271" y="739" type="line"/>
			<point x="197" y="739" type="line"/>
			<point x="159" y="536" type="line" smooth="yes"/>
			<point x="154" y="509"/>
			<point x="152" y="483"/>
			<point x="152" y="460" type="curve" smooth="yes"/>
			<point x="152" y="334"/>
			<point x="222" y="257"/>
			<point x="363" y="246" type="curve"/>
		</contour>
	</outline>
</glyph>
<glyph name="psicyr" format="2">
	<unicode hex="0471"/>
	<advance width="722"/>
	<outline>
		<contour>
			<point x="284" y="-192" type="line"/>
			<point x="358" y="-192" type="line"/>
			<point x="392" y="-12" type="line"/>
			<point x="628" y="4"/>
			<point x="725" y="175"/>
			<point x="725" y="391" type="curve" smooth="yes"/>
			<point x="725" y="443"/>
			<point x="718" y="504"/>
			<point x="698" y="547" type="curve"/>
			<point x="619" y="547" type="line"/>
			<point x="644" y="501"/>
			<point x="651" y="440"/>
			<point x="651" y="389" type="curve" smooth="yes"/>
			<point x="651" y="225"/>
			<point x="591" y="71"/>
			<point x="404" y="56" type="curve"/>
			<point x="495" y="547" type="line"/>
			<point x="421" y="547" type="line"/>
			<point x="330" y="56" type="line"/>
			<point x="222" y="65"/>
			<point x="175" y="116"/>
			<point x="175" y="199" type="curve" smooth="yes"/>
			<point x="175" y="217"/>
			<point x="178" y="235"/>
			<point x="181" y="252" type="curve" smooth="yes"/>
			<point x="235" y="547" type="line"/>
			<point x="161" y="547" type="line"/>
			<point x="107" y="252" type="line" smooth="yes"/>
			<point x="102" y="228"/>
			<point x="100" y="205"/>
			<point x="100" y="184" type="curve" smooth="yes"/>
			<point x="100" y="66"/>
			<point x="172" y="-4"/>
			<point x="318" y="-12" type="curve"/>
		</contour>
	</outline>
</glyph>
<glyph name="omegaroundcyr" format="2">
	<unicode hex="047B"/>
	<advance width="655"/>
	<outline>
		<contour>
			<point x="87" y="217" type="curve" smooth="yes"/>
			<point x="87" y="110"/>
			<point x="149" y="27"/>
			<point x="248" y="-2" type="curve"/>
			<point x="255" y="-38"/>
			<point x="284" y="-63"/>
			<point x="324" y="-63" type="curve" smooth="yes"/>
			<point x="365" y="-63"/>
			<point x="404" y="-37"/>
			<point x="424" y="1" type="curve"/>
			<point x="567" y="43"/>
			<point x="669" y="183"/>
			<point x="669" y="331" type="curve" smooth="yes"/>
			<point x="669" y="437"/>
			<point x="612" y="517"/>
			<point x="520" y="548" type="curve"/>
			<point x="512" y="582"/>
			<point x="483" y="606"/>
			<point x="444" y="606" type="curve" smooth="yes"/>
			<point x="406" y="606"/>
			<point x="369" y="582"/>
			<point x="348" y="549" type="curve"/>
			<point x="201" y="510"/>
			<point x="87" y="370"/>
		</contour>
		<contour>
			<point x="163" y="228" type="curve" smooth="yes"/>
			<point x="163" y="334"/>
			<point x="233" y="437"/>
			<point x="332" y="476" type="curve"/>
			<point x="340" y="440"/>
			<point x="369" y="414"/>
			<point x="409" y="414" type="curve" smooth="yes"/>
			<point x="448" y="414"/>
			<point x="485" y="438"/>
			<point x="506" y="473" type="curve"/>
			<point x="561" y="445"/>
			<point x="593" y="390"/>
			<point x="593" y="319" type="curve" smooth="yes"/>
			<point x="593" y="216"/>
			<point x="531" y="114"/>
			<point x="435" y="74" type="curve"/>
			<point x="426" y="107"/>
			<point x="398" y="129"/>
			<point x="360" y="129" type="curve" smooth="yes"/>
			<point x="321" y="129"/>
			<point x="283" y="104"/>
			<point x="262" y="70" type="curve"/>
			<point x="201" y="96"/>
			<point x="163" y="154"/>
		</contour>
	</outline>
</glyph>
<glyph name="psilicombcyr" format="2">
	<unicode hex="0486"/>
	<outline>
		<contour>
			<point x="-51" y="613" type="line"/>
			<point x="-5" y="649"/>
			<point x="47" y="707"/>
			<point x="47" y="769" type="curve" smooth="yes"/>
			<point x="47" y="792"/>
			<point x="31" y="806"/>
			<point x="4" y="806" type="curve" smooth="yes"/>
			<point x="-4" y="806" type="line" smooth="yes"/>
			<point x="-37" y="806"/>
			<point x="-65" y="784"/>
			<point x="-65" y="750" type="curve" smooth="yes"/>
			<point x="-65" y="733"/>
			<point x="-56" y="719"/>
			<point x="-44" y="719" type="curve" smooth="yes"/>
			<point x="-30" y="719" type="line"/>
			<point x="-36" y="684"/>
			<point x="-77" y="644"/>
			<point x="-115" y="613" type="curve"/>
		</contour>
	</outline>
</glyph>
<glyph name="horizontalbar" format="2">
	<unicode hex="2015"/>
	<advance width="1000"/>
	<outline>
		<contour>
			<point x="43" y="233" type="line"/>
			<point x="1043" y="233" type="line"/>
			<point x="1055" y="296" type="line"/>
			<point x="55" y="296" type="line"/>
		</contour>
	</outline>
</glyph>
<glyph name="quotereversed" format="2">
	<unicode hex="201B"/>
	<advance width="252"/>
	<outline>
		<contour>
			<point x="314" y="740" type="line"/>
			<point x="222" y="740" type="line"/>
			<point x="201" y="630" type="line" smooth="yes"/>
			<point x="185" y="548"/>
			<point x="221" y="506"/>
			<point x="268" y="487" type="curve"/>
			<point x="277" y="531" type="line"/>
			<point x="255" y="547"/>
			<point x="244" y="572"/>
			<point x="252" y="614" type="curve"/>
			<point x="290" y="614" type="line"/>
		</contour>
	</outline>
</glyph>
<glyph name="guilsinglleft" format="2">
	<unicode hex="2039"/>
	<advance width="251"/>
	<outline>
		<contour>
			<point x="170" y="99" type="line"/>
			<point x="235" y="132" type="line"/>
			<point x="174" y="300" type="line"/>
			<point x="298" y="467" type="line"/>
			<point x="244" y="499" type="line"/>
			<point x="96" y="302" type="line"/>
			<point x="96" y="298" type="line"/>
		</contour>
	</outline>
</glyph>
<glyph name="Yacyr.loclBGR" format="2">
	<advance width="607"/>
	<outline>
		<contour>
			<point x="49" y="0" type="line"/>
			<point x="141" y="0" type="line"/>
			<point x="393" y="309" type="line"/>
			<point x="459" y="309" type="line"/>
			<point x="472" y="375" type="line"/>
			<point x="393" y="375" type="line" smooth="yes"/>
			<point x="356" y="375"/>
			<point x="210" y="377"/>
			<point x="210" y="494" type="curve" smooth="yes"/>
			<point x="210" y="626"/>
			<point x="332" y="673"/>
			<point x="448" y="673" type="curve" smooth="yes"/>
			<point x="581" y="673" type="line"/>
			<point x="456" y="0" type="line"/>
			<point x="530" y="0" type="line"/>
			<point x="667" y="740" type="line"/>
			<point x="460" y="740" type="line" smooth="yes"/>
			<point x="301" y="740"/>
			<point x="135" y="662"/>
			<point x="135" y="481" type="curve" smooth="yes"/>
			<point x="135" y="392"/>
			<point x="198" y="321"/>
			<point x="310" y="316" type="curve"/>
		</contour>
	</outline>
</glyph>
<glyph name="becyr.loclBGR" format="2">
	<advance width="648"/>
	<outline>
		<contour>
			<point x="90" y="220" type="curve" smooth="yes"/>
			<point x="90" y="89"/>
			<point x="157" y="-13"/>
			<point x="323" y="-13" type="curve" smooth="yes"/>
			<point x="500" y="-13"/>
			<point x="658" y="130"/>
			<point x="658" y="309" type="curve" smooth="yes"/>
			<point x="658" y="437"/>
			<point x="567" y="530"/>
			<point x="433" y="530" type="curve" smooth="yes"/>
			<point x="331" y="530"/>
			<point x="250" y="483"/>
			<point x="203" y="437" type="curve"/>
			<point x="200" y="438" type="line"/>
			<point x="208" y="482"/>
			<point x="257" y="634"/>
			<point x="454" y="656" type="curve" smooth="yes"/>
			<point x="654" y="678" type="line"/>
			<point x="667" y="752" type="line"/>
			<point x="470" y="727" type="line" smooth="yes"/>
			<point x="267" y="701"/>
			<point x="155" y="609"/>
			<point x="98" y="304" type="curve" smooth="yes"/>
			<point x="93" y="275"/>
			<point x="90" y="247"/>
		</contour>
		<contour>
			<point x="168" y="222" type="curve" smooth="yes"/>
			<point x="168" y="360"/>
			<point x="273" y="462"/>
			<point x="412" y="462" type="curve" smooth="yes"/>
			<point x="515" y="462"/>
			<point x="582" y="393"/>
			<point x="582" y="297" type="curve" smooth="yes"/>
			<point x="582" y="165"/>
			<point x="467" y="55"/>
			<point x="335" y="55" type="curve" smooth="yes"/>
			<point x="232" y="55"/>
			<point x="168" y="125"/>
		</contour>
	</outline>
</glyph>
<glyph name="gecyr.loclBGR" format="2">
	<advance width="388"/>
	<outline>
		<contour>
			<point x="327" y="161" type="line"/>
			<point x="310" y="93"/>
			<point x="266" y="55"/>
			<point x="204" y="55" type="curve" smooth="yes"/>
			<point x="157" y="55"/>
			<point x="128" y="85"/>
			<point x="128" y="130" type="curve" smooth="yes"/>
			<point x="128" y="199"/>
			<point x="179" y="227"/>
			<point x="255" y="255" type="curve" smooth="yes"/>
			<point x="347" y="289"/>
			<point x="428" y="323"/>
			<point x="428" y="437" type="curve" smooth="yes"/>
			<point x="428" y="510"/>
			<point x="378" y="560"/>
			<point x="299" y="560" type="curve" smooth="yes"/>
			<point x="211" y="560"/>
			<point x="137" y="500"/>
			<point x="117" y="412" type="curve"/>
			<point x="192" y="412" type="line"/>
			<point x="206" y="464"/>
			<point x="239" y="492"/>
			<point x="287" y="492" type="curve" smooth="yes"/>
			<point x="326" y="492"/>
			<point x="353" y="465"/>
			<point x="353" y="428" type="curve" smooth="yes"/>
			<point x="353" y="358"/>
			<point x="269" y="329"/>
			<point x="207" y="308" type="curve"/>
			<point x="115" y="275"/>
			<point x="53" y="229"/>
			<point x="53" y="120" type="curve" smooth="yes"/>
			<point x="53" y="40"/>
			<point x="105" y="-13"/>
			<point x="192" y="-13" type="curve" smooth="yes"/>
			<point x="298" y="-13"/>
			<point x="379" y="55"/>
			<point x="400" y="161" type="curve"/>
		</contour>
	</outline>
</glyph>
<glyph name="gecyr.loclMKD" format="2">
	<advance width="388"/>
	<outline>
		<component base="gecyr.loclBGR"/>
		<contour>
			<point x="163" y="643" type="line"/>
			<point x="490" y="643" type="line"/>
			<point x="502" y="707" type="line"/>
			<point x="175" y="707" type="line"/>
		</contour>
	</outline>
</glyph>
<glyph name="hardcyr.loclBGR" format="2">
	<advance width="734"/>
	<outline>
		<contour>
			<point x="223" y="178" type="curve" smooth="yes"/>
			<point x="223" y="59"/>
			<point x="306" y="-13"/>
			<point x="436" y="-13" type="curve" smooth="yes"/>
			<point x="604" y="-13"/>
			<point x="740" y="114"/>
			<point x="740" y="283" type="curve" smooth="yes"/>
			<point x="740" y="396"/>
			<point x="664" y="485"/>
			<point x="528" y="485" type="curve" smooth="yes"/>
			<point x="456" y="485"/>
			<point x="374" y="446"/>
			<point x="333" y="398" type="curve"/>
			<point x="360" y="547" type="line"/>
			<point x="113" y="547" type="line"/>
			<point x="101" y="480" type="line"/>
			<point x="274" y="480" type="line"/>
			<point x="228" y="232" type="line" smooth="yes"/>
			<point x="224" y="213"/>
			<point x="223" y="195"/>
		</contour>
		<contour>
			<point x="298" y="192" type="curve" smooth="yes"/>
			<point x="298" y="312"/>
			<point x="392" y="417"/>
			<point x="515" y="417" type="curve" smooth="yes"/>
			<point x="609" y="417"/>
			<point x="664" y="357"/>
			<point x="664" y="272" type="curve" smooth="yes"/>
			<point x="664" y="148"/>
			<point x="574" y="55"/>
			<point x="448" y="55" type="curve" smooth="yes"/>
			<point x="362" y="55"/>
			<point x="298" y="103"/>
		</contour>
	</outline>
</glyph>
<glyph name="igravecyr.loclBGR" format="2">
	<advance width="608"/>
	<outline>
		<component base="u"/>
		<contour>
			<point x="289" y="718" type="line"/>
			<point x="466" y="610" type="line"/>
			<point x="509" y="666" type="line"/>
			<point x="332" y="776" type="line"/>
		</contour>
	</outline>
</glyph>
<glyph name="ishortcyr.loclBGR" format="2">
	<advance width="608"/>
	<outline>
		<component base="u"/>
		<contour>
			<point x="290" y="746" type="line"/>
			<point x="290" y="656"/>
			<point x="338" y="616"/>
			<point x="418" y="616" type="curve" smooth="yes"/>
			<point x="498" y="616"/>
			<point x="562" y="656"/>
			<point x="594" y="746" type="curve"/>
			<point x="520" y="746" type="line"/>
			<point x="509" y="688"/>
			<point x="476" y="662"/>
			<point x="427" y="662" type="curve" smooth="yes"/>
			<point x="380" y="662"/>
			<point x="364" y="697"/>
			<point x="364" y="746" type="curve"/>
		</contour>
	</outline>
</glyph>
<glyph name="softcyr.loclBGR" format="2">
	<advance width="612"/>
	<outline>
		<contour>
			<point x="176" y="192" type="curve" smooth="yes"/>
			<point x="176" y="312"/>
			<point x="270" y="417"/>
			<point x="393" y="417" type="curve" smooth="yes"/>
			<point x="487" y="417"/>
			<point x="542" y="357"/>
			<point x="542" y="272" type="curve" smooth="yes"/>
			<point x="542" y="148"/>
			<point x="452" y="55"/>
			<point x="326" y="55" type="curve" smooth="yes"/>
			<point x="240" y="55"/>
			<point x="176" y="103"/>
		</contour>
		<contour>
			<point x="101" y="178" type="curve" smooth="yes"/>
			<point x="101" y="59"/>
			<point x="184" y="-13"/>
			<point x="314" y="-13" type="curve" smooth="yes"/>
			<point x="482" y="-13"/>
			<point x="618" y="114"/>
			<point x="618" y="283" type="curve" smooth="yes"/>
			<point x="618" y="396"/>
			<point x="542" y="485"/>
			<point x="406" y="485" type="curve" smooth="yes"/>
			<point x="334" y="485"/>
			<point x="252" y="446"/>
			<point x="211" y="398" type="curve"/>
			<point x="238" y="547" type="line"/>
			<point x="164" y="547" type="line"/>
			<point x="106" y="232" type="line" smooth="yes"/>
			<point x="103" y="213"/>
			<point x="101" y="195"/>
		</contour>
	</outline>
</glyph>
<glyph name="tecyr.loclSRB" format="2">
	<advance width="938"/>
	<outline>
		<component base="shacyr.loclBGR"/>
		<contour>
			<point x="193" y="643" type="line"/>
			<point x="970" y="643" type="line"/>
			<point x="982" y="707" type="line"/>
			<point x="205" y="707" type="line"/>
		</contour>
	</outline>
</glyph>
<glyph name="vecyr.loclBGR" format="2">
	<advance width="606"/>
	<outline>
		<contour>
			<point x="97" y="165" type="curve" smooth="yes"/>
			<point x="97" y="55"/>
			<point x="186" y="-13"/>
			<point x="310" y="-13" type="curve" smooth="yes"/>
			<point x="475" y="-13"/>
			<point x="608" y="92"/>
			<point x="608" y="261" type="curve" smooth="yes"/>
			<point x="608" y="326"/>
			<point x="582" y="389"/>
			<point x="493" y="410" type="curve"/>
			<point x="493" y="413" type="line"/>
			<point x="575" y="436"/>
			<point x="625" y="517"/>
			<point x="625" y="600" type="curve" smooth="yes"/>
			<point x="625" y="684"/>
			<point x="560" y="752"/>
			<point x="432" y="752" type="curve" smooth="yes"/>
			<point x="342" y="752"/>
			<point x="195" y="711"/>
			<point x="157" y="509" type="curve" smooth="yes"/>
			<point x="101" y="206" type="line"/>
			<point x="98" y="192"/>
			<point x="97" y="178"/>
		</contour>
		<contour>
			<point x="173" y="178" type="curve" smooth="yes"/>
			<point x="173" y="187"/>
			<point x="173" y="197"/>
			<point x="175" y="206" type="curve"/>
			<point x="232" y="512" type="line" smooth="yes"/>
			<point x="254" y="630"/>
			<point x="326" y="685"/>
			<point x="420" y="685" type="curve" smooth="yes"/>
			<point x="498" y="685"/>
			<point x="549" y="653"/>
			<point x="549" y="591" type="curve" smooth="yes"/>
			<point x="549" y="490"/>
			<point x="477" y="441"/>
			<point x="383" y="441" type="curve" smooth="yes"/>
			<point x="277" y="441" type="line"/>
			<point x="264" y="373" type="line"/>
			<point x="372" y="373" type="line" smooth="yes"/>
			<point x="472" y="373"/>
			<point x="530" y="317"/>
			<point x="530" y="238" type="curve" smooth="yes"/>
			<point x="530" y="117"/>
			<point x="439" y="54"/>
			<point x="323" y="54" type="curve" smooth="yes"/>
			<point x="219" y="54"/>
			<point x="173" y="111"/>
		</contour>
	</outline>
</glyph>
<glyph name="yacyr.loclBGR" format="2">
	<advance width="505"/>
	<outline>
		<contour>
			<point x="44" y="0" type="line"/>
			<point x="129" y="0" type="line"/>
			<point x="308" y="219" type="line"/>
			<point x="372" y="219" type="line"/>
			<point x="383" y="280" type="line"/>
			<point x="288" y="280" type="line" smooth="yes"/>
			<point x="209" y="280"/>
			<point x="178" y="316"/>
			<point x="178" y="364" type="curve" smooth="yes"/>
			<point x="178" y="448"/>
			<point x="251" y="480"/>
			<point x="325" y="480" type="curve" smooth="yes"/>
			<point x="472" y="480" type="line"/>
			<point x="383" y="0" type="line"/>
			<point x="457" y="0" type="line"/>
			<point x="558" y="547" type="line"/>
			<point x="337" y="547" type="line" smooth="yes"/>
			<point x="224" y="547"/>
			<point x="103" y="482"/>
			<point x="103" y="357" type="curve" smooth="yes"/>
			<point x="103" y="281"/>
			<point x="153" y="228"/>
			<point x="234" y="222" type="curve"/>
		</contour>
	</outline>
</glyph>
